<svg width="32" height="36" viewBox="0 0 32 36" fill="none" xmlns="http://www.w3.org/2000/svg">
<path d="M11.5904 33C12.7656 34.0373 14.3094 34.6666 16.0001 34.6666C17.6909 34.6666 19.2346 34.0373 20.4098 33M26.0001 11.3333C26.0001 8.68115 24.9465 6.13761 23.0712 4.26225C21.1958 2.38688 18.6523 1.33331 16.0001 1.33331C13.3479 1.33331 10.8044 2.38688 8.92905 4.26225C7.05368 6.13761 6.00011 8.68115 6.00011 11.3333C6.00011 16.4836 4.7009 20.0099 3.24955 22.3423C2.02532 24.3098 1.41321 25.2935 1.43565 25.5679C1.46051 25.8718 1.52488 25.9876 1.76974 26.1693C1.99088 26.3333 2.98776 26.3333 4.98154 26.3333H27.0187C29.0125 26.3333 30.0093 26.3333 30.2305 26.1693C30.4753 25.9876 30.5397 25.8718 30.5646 25.5679C30.587 25.2935 29.9749 24.3098 28.7507 22.3423C27.2993 20.0099 26.0001 16.4836 26.0001 11.3333Z" stroke="black" stroke-width="2" stroke-linecap="round" stroke-linejoin="round"/>
</svg>
